:SAMPLES-PER-SECOND 30
:FULLY-SPECIFIED
:DEGREES
122
root  4.91768 39.2859 2.07895 -62.1306 -85.3158 53.314
RightUpLeg  -12.8516 -5.94917 -5.59676
RightLeg  52.402 -2.95427 -4.50919
RightFoot  5.45169 -0.60663 4.56938
RightToes  -2.32832e-010 0 -3.6325e-017
Spine  11.6003 -1.55654 -10.3388
Spine1  2.93848 -4.75419 5.90025
HEad  -5.3719 9.5739 -3.40384
LeftShoulder1  1.56574 -2.68726 -18.7986
LeftArm  -0.2351 11.0955 -58.4871
LeftForeArm  9.75527 -59.6549 -18.8986
LeftHand  -0.901526 -5.93213 9.48826
RightShoulder  1.50358 2.07855 20.6333
RightArm  -0.679852 -44.1717 40.1817
RightForeArm  25.9326 63.5922 20.5544
RightHand  -1.12477 2.18981 -17.3206
LeftUpLeg  4.83209 5.94743 -5.2511
LeftLeg  17.6658 8.22383 3.75129
LeftFoot  -11.915 0.0366114 -6.90238
LeftToes  2.2737e-010 4.38529e-011 2.18788e-011
123
root  4.88973 39.3467 1.92782 -53.5721 -85.3745 44.8987
RightUpLeg  -4.61131 -5.19948 -5.12748
RightLeg  40.2933 -3.75403 -3.6886
RightFoot  -3.21699 -0.591696 7.9224
RightToes  -2.32832e-010 0 -3.6325e-017
Spine  10.6116 -1.0723 -9.0928
Spine1  3.46982 -4.08233 7.17328
HEad  -4.36978 7.31597 -4.73287
LeftShoulder1  1.83761 -3.25153 -20.8118
LeftArm  5.24727 13.2891 -57.8439
LeftForeArm  -1.19885 -42.353 -10.0764
LeftHand  -1.46997 -6.5973 14.5346
RightShoulder  1.57842 2.06085 22.1787
RightArm  -7.61041 -34.27 46.6603
RightForeArm  26.9337 64.7972 21.7639
RightHand  -1.21581 2.3521 -18.3115
LeftUpLeg  4.38168 4.0457 -4.99594
LeftLeg  18.367 9.45712 4.35813
LeftFoot  -12.1887 0.0154199 -7.40156
LeftToes  2.2737e-010 4.38529e-011 2.18788e-011
124
root  4.99219 39.3375 1.77948 -26.1443 -86.2215 18.5033
RightUpLeg  -0.355976 -4.07641 -2.24403
RightLeg  31.5488 -4.78011 -3.37252
RightFoot  -9.37596 -0.219787 8.4297
RightToes  -2.32832e-010 0 -3.6325e-017
Spine  9.86766 -0.866845 -4.97828
Spine1  2.89234 -3.06396 7.01292
HEad  -3.51977 5.26637 -7.03528
LeftShoulder1  2.02658 -3.7117 -21.7376
LeftArm  13.132 16.85 -56.6665
LeftForeArm  -8.4035 -30.0683 -6.8972
LeftHand  -1.82081 -6.00477 18.7456
RightShoulder  1.4136 1.6002 21.4341
RightArm  -10.6289 -23.2562 52.8216
RightForeArm  33.1356 69.3587 27.6106
RightHand  -1.24866 2.34795 -18.8094
LeftUpLeg  -0.0462915 1.97274 -2.82007
LeftLeg  24.3894 10.2574 5.3295
LeftFoot  -11.6115 0.0517664 -9.31067
LeftToes  2.2737e-010 4.38529e-011 2.18788e-011
125
root  5.26201 39.2567 1.62316 25.4862 -86.4762 -32.1535
RightUpLeg  0.385494 -2.27546 2.5752
RightLeg  27.1919 -7.26747 -4.27795
RightFoot  -10.5286 -0.109168 5.85688
RightToes  -2.32832e-010 0 -3.6325e-017
Spine  10.6324 -0.235797 0.724047
Spine1  1.36206 -1.51192 6.79993
HEad  -3.85257 3.13766 -9.47137
LeftShoulder1  2.25714 -4.36367 -22.3871
LeftArm  18.2458 23.3324 -54.155
LeftForeArm  -10.9257 -27.4791 -6.46658
LeftHand  -1.86401 -5.37066 20.2253
RightShoulder  1.06145 0.776805 18.3037
RightArm  -9.97274 -12.101 57.3361
RightForeArm  51.7028 76.3309 46.5363
RightHand  -1.13997 2.0002 -17.9562
LeftUpLeg  -7.99941 2.58772 1.51627
LeftLeg  35.6604 7.92138 6.40411
LeftFoot  -8.00174 0.448329 -13.1189
LeftToes  2.2737e-010 4.38529e-011 2.18788e-011
126
root  5.56192 39.0363 1.43274 55.0576 -84.7122 -62.4212
RightUpLeg  0.891076 -0.737533 6.56699
RightLeg  26.4319 -9.70068 -5.44026
RightFoot  -10.2675 -0.11058 4.3402
RightToes  -2.32832e-010 0 -3.6325e-017
Spine  13.0149 0.792051 4.68652
Spine1  0.760857 0.115307 7.48741
HEad  -6.19539 0.249638 -10.3881
LeftShoulder1  2.39077 -4.96844 -21.8956
LeftArm  18.2093 31.4438 -51.1284
LeftForeArm  -8.40503 -32.6279 -7.69396
LeftHand  -1.76461 -5.45985 19.0322
RightShoulder  0.707572 -0.165877 14.4309
RightArm  -9.23415 -1.65832 58.4757
RightForeArm  102.798 79.6935 101.219
RightHand  -0.865986 1.04174 -15.6765
LeftUpLeg  -16.293 2.75652 5.53859
LeftLeg  49.8288 5.14086 6.92758
LeftFoot  -3.33351 1.22014 -17.179
LeftToes  2.2737e-010 4.38529e-011 2.18788e-011
127
root  5.7515 38.9271 1.21394 50.3136 -83.4941 -60.1365
RightUpLeg  3.55788 -0.197118 8.20695
RightLeg  25.9241 -10.9716 -5.97849
RightFoot  -10.3792 -0.112015 4.94512
RightToes  -2.32832e-010 0 -3.6325e-017
Spine  15.6933 1.55888 5.83902
Spine1  2.03951 1.22674 7.98183
HEad  -9.72608 -3.07322 -8.99862
LeftShoulder1  2.26917 -5.17325 -19.6694
LeftArm  18.4263 39.0996 -48.0959
LeftForeArm  -5.56912 -40.7636 -10.0058
LeftHand  -1.54505 -5.48295 16.698
RightShoulder  0.462279 -1.03138 11.7262
RightArm  -11.718 7.27395 56.1534
RightForeArm  137.933 73.4064 142.765
RightHand  -0.638796 -0.0424568 -13.9381
LeftUpLeg  -22.1091 1.8885 7.40983
LeftLeg  63.2319 2.79861 6.676
LeftFoot  -2.03648 1.51393 -18.3245
LeftToes  2.2737e-010 4.38529e-011 2.18788e-011
128
root  5.82019 38.9971 1.01703 38.0906 -82.863 -50.0881
RightUpLeg  6.56857 0.0131385 8.55498
RightLeg  24.6224 -11.9844 -6.18208
RightFoot  -10.3267 -0.117604 5.37656
RightToes  -2.32832e-010 0 -3.6325e-017
Spine  17.2082 1.84622 5.83676
Spine1  3.74374 1.81709 7.27273
HEad  -12.3017 -5.67827 -6.28483
LeftShoulder1  2.02674 -5.07669 -16.9457
LeftArm  21.2425 45.5719 -44.0987
LeftForeArm  -3.01958 -47.7549 -12.5583
LeftHand  -1.31815 -5.23599 14.6437
RightShoulder  0.31064 -1.74186 10.571
RightArm  -16.743 13.6887 52.5277
RightForeArm  143.556 66.8694 154.209
RightHand  -0.59056 -0.550814 -14.1565
LeftUpLeg  -26.5796 0.866141 7.43183
LeftLeg  75.0449 1.16197 6.23197
LeftFoot  -5.12606 0.946774 -16.6843
LeftToes  2.2737e-010 4.38529e-011 2.18788e-011
129
root  5.79031 39.1053 0.895002 31.1882 -82.3474 -43.4512
RightUpLeg  7.51424 0.237337 8.84731
RightLeg  23.4383 -13.1826 -6.62388
RightFoot  -9.75453 -0.133545 4.86391
RightToes  -2.32832e-010 0 -3.6325e-017
Spine  17.0611 2.05855 5.90498
Spine1  4.18545 2.32441 6.19156
HEad  -12.6725 -7.30619 -3.77915
LeftShoulder1  1.89436 -5.15472 -15.0515
LeftArm  25.5117 50.9215 -38.9772
LeftForeArm  -0.256315 -52.4627 -14.7109
LeftHand  -1.15317 -5.25814 12.8417
RightShoulder  0.21299 -2.26413 10.1224
RightArm  -21.2168 16.3685 49.8152
RightForeArm  144.527 62.7973 158.308
RightHand  -0.582 -0.922249 -15.0765
LeftUpLeg  -31.013 0.522698 6.99515
LeftLeg  84.1498 0.123861 5.70922
LeftFoot  -8.22581 0.465953 -15.4032
LeftToes  2.2737e-010 4.38529e-011 2.18788e-011
130
root  5.6982 39.1939 0.835899 29.2834 -82.2675 -40.548
RightUpLeg  6.97578 -0.101291 8.76633
RightLeg  22.5327 -13.3756 -6.81748
RightFoot  -9.14809 -0.150734 4.60868
RightToes  -2.32832e-010 0 -3.6325e-017
Spine  16.0477 2.57899 5.72563
Spine1  3.58121 2.9601 5.78363
HEad  -11.7823 -8.57145 -2.20253
LeftShoulder1  1.89627 -5.57498 -13.9608
LeftArm  29.3385 54.848 -34.5672
LeftForeArm  1.8459 -55.3333 -16.273
LeftHand  -1.03803 -5.58478 11.2686
RightShoulder  0.168241 -2.50781 9.87605
RightArm  -23.2199 14.8626 48.5623
RightForeArm  145.724 60.0699 160.578
RightHand  -0.507834 -1.47716 -14.9356
LeftUpLeg  -34.1888 0.646714 6.60708
LeftLeg  88.8447 -0.342681 4.90363
LeftFoot  -8.07311 0.496517 -15.6075
LeftToes  2.2737e-010 4.38529e-011 2.18788e-011
